<?xml version="1.0" encoding="utf-8"?>
<!-- Generator: Adobe Illustrator 22.0.1, SVG Export Plug-In . SVG Version: 6.00 Build 0)  -->
<svg version="1.1" id="Layer_1" xmlns="http://www.w3.org/2000/svg" xmlns:xlink="http://www.w3.org/1999/xlink" x="0px" y="0px"
	 viewBox="0 0 70 77" style="enable-background:new 0 0 70 77;" xml:space="preserve">
<style type="text/css">
	.st0{fill:#85BB65;}
	.st1{fill:url(#SVGID_1_);}
</style>
<g>
	<path class="st0" d="M58.2,25.9l-7.5,6h-2.4l6.1-4.8l2.9-2.3l0,0c0,0,0.1-0.1,0.1-0.1c0.3-0.3,0.4-0.6,0.3-1c0-0.1-0.1-0.3-0.2-0.4
		l-7.8-9.8l-2.3-2.9c-0.4-0.5-1-0.5-1.5-0.2L43,12.6L18.7,31.9h-2.4L44.9,9.2c1.1-0.9,2.7-0.7,3.6,0.4l10.1,12.7
		C59.4,23.4,59.3,25,58.2,25.9z M54.7,20.8L54.7,20.8l-5.6-7.1c-1.8,1.1-4.1,0.8-5.7-0.6L19.7,31.9h11.4c-1.7-3.1-1.4-6.8,1.1-8.8
		c2.8-2.2,7.2-1.3,9.8,2c1.6,2.1,2.2,4.6,1.7,6.8h3.5l6.8-5.4C52.9,24.7,53.2,22.3,54.7,20.8z M37,27.9c-1.2,0.4-1.7,0.4-2,0.1
		c-0.2-0.3-0.2-0.7,0.4-1.3c0.7-0.6,1.4-0.7,1.8-0.9l-0.6-1.4c-0.5,0.1-1.1,0.3-1.8,0.9l-0.4-0.5c-0.1-0.1-0.2-0.2-0.4-0.2
		c-0.2,0-0.3,0-0.4,0.1l-0.1,0.1c-0.1,0.1-0.2,0.2-0.2,0.4c0,0.2,0,0.3,0.1,0.4l0.4,0.5c-1,1.1-1,2.4-0.3,3.3c0.8,1,2,0.9,3.4,0.4
		c1-0.4,1.5-0.4,1.9,0c0.3,0.4,0.1,1-0.5,1.5c-0.2,0.2-0.5,0.4-0.8,0.5H40c1-1.1,1-2.5,0.3-3.4C39.6,27.5,38.6,27.4,37,27.9z"/>
	
		<linearGradient id="SVGID_1_" gradientUnits="userSpaceOnUse" x1="5" y1="27.2828" x2="64.2231" y2="27.2828" gradientTransform="matrix(1 0 0 -1 0 78)">
		<stop  offset="0" style="stop-color:#37BFF8"/>
		<stop  offset="1.481378e-02" style="stop-color:#37BEF8"/>
		<stop  offset="0.6642" style="stop-color:#4A96EF"/>
		<stop  offset="1" style="stop-color:#5186EC"/>
	</linearGradient>
	<path class="st1" d="M58.5,30.4h-3.6l2.7-2.1l0,0C58.2,28.9,58.5,29.6,58.5,30.4L58.5,30.4L58.5,30.4z M64.2,50.3v6.9
		c0,0.2-0.1,0.4-0.2,0.6c-0.2,0.2-0.4,0.2-0.6,0.2H51.3c-1.1,0-2.2-0.4-3-1.2c-0.9-0.9-1.2-1.9-1.2-3c0-1.1,0.4-2.2,1.2-3
		s1.9-1.2,3-1.2h12.1c0.2,0,0.4,0.1,0.6,0.2C64.2,49.8,64.2,50,64.2,50.3z M53.5,53.7c0-1.2-1-2.2-2.2-2.2c-1.2,0-2.2,1-2.2,2.2
		s1,2.2,2.2,2.2S53.5,54.9,53.5,53.7z M51.3,59.4h11.3v10.3c0,1.1-0.4,2.2-1.2,3c-0.9,0.9-1.9,1.2-3,1.2h-49c-1.1,0-2.2-0.4-3-1.2
		c-0.9-0.9-1.2-1.9-1.2-3v-38c0-1.1,0.4-2.2,1.2-3c0.9-0.9,1.9-1.2,3-1.2h2.9l-1.3,3H9.4c-0.4,0-0.7,0.1-1,0.4
		c-0.3,0.3-0.4,0.6-0.4,1v0.1c0,0.4,0.1,0.7,0.4,1c0.3,0.3,0.6,0.4,1,0.4h49c1.1,0,2.2,0.4,3,1.2c0.9,0.9,1.2,1.9,1.2,3v10.3H51.4
		c-1.5,0-3,0.6-4.1,1.7c-1.1,1.1-1.7,2.5-1.7,4.1c0,1.5,0.6,3,1.7,4.1C48.4,58.8,49.8,59.4,51.3,59.4z M59.3,44.1
		c0-0.2-0.2-0.4-0.4-0.4c-0.2,0-0.4,0.2-0.4,0.4v2c0,0.2,0.2,0.4,0.4,0.4c0.2,0,0.4-0.2,0.4-0.4V44.1z M59.3,39.8
		c0-0.2-0.2-0.4-0.4-0.4c-0.2,0-0.4,0.2-0.4,0.4v2c0,0.2,0.2,0.4,0.4,0.4c0.2,0,0.4-0.2,0.4-0.4V39.8z M57.6,37.1
		c0,0.2,0.2,0.4,0.4,0.4h0.2c0.1,0,0.1,0.1,0.1,0.1v0.2c0,0.2,0.2,0.4,0.4,0.4s0.4-0.2,0.4-0.4v-0.2c0-0.5-0.5-1-1-1h-0.2
		C57.8,36.6,57.6,36.8,57.6,37.1z M53.8,37.1c0,0.2,0.2,0.4,0.4,0.4h2c0.2,0,0.4-0.2,0.4-0.4s-0.2-0.4-0.4-0.4h-2
		C54,36.6,53.8,36.8,53.8,37.1z M49.5,37.1c0,0.2,0.2,0.4,0.4,0.4h2c0.2,0,0.4-0.2,0.4-0.4s-0.2-0.4-0.4-0.4h-2
		C49.7,36.6,49.5,36.8,49.5,37.1z M45.3,37.1c0,0.2,0.2,0.4,0.4,0.4h2c0.2,0,0.4-0.2,0.4-0.4s-0.2-0.4-0.4-0.4h-2
		C45.4,36.6,45.3,36.8,45.3,37.1z M8.2,37.9c0,0.2,0.2,0.4,0.4,0.4c0.2,0,0.4-0.2,0.4-0.4v-0.2c0-0.1,0.1-0.1,0.1-0.1h0.2
		c0.2,0,0.4-0.2,0.4-0.4s-0.2-0.4-0.4-0.4H9.3c-0.5,0-1,0.5-1,1L8.2,37.9L8.2,37.9z M8.2,41.8c0,0.2,0.2,0.4,0.4,0.4
		c0.2,0,0.4-0.2,0.4-0.4v-2c0-0.2-0.2-0.4-0.4-0.4c-0.2,0-0.4,0.2-0.4,0.4V41.8z M8.2,46.1c0,0.2,0.2,0.4,0.4,0.4
		c0.2,0,0.4-0.2,0.4-0.4v-2c0-0.2-0.2-0.4-0.4-0.4c-0.2,0-0.4,0.2-0.4,0.4V46.1z M8.2,50.4c0,0.2,0.2,0.4,0.4,0.4
		c0.2,0,0.4-0.2,0.4-0.4v-2c0-0.2-0.2-0.4-0.4-0.4c-0.2,0-0.4,0.2-0.4,0.4V50.4z M8.2,54.7c0,0.2,0.2,0.4,0.4,0.4
		c0.2,0,0.4-0.2,0.4-0.4v-2c0-0.2-0.2-0.4-0.4-0.4c-0.2,0-0.4,0.2-0.4,0.4V54.7z M8.2,59c0,0.2,0.2,0.4,0.4,0.4
		c0.2,0,0.4-0.2,0.4-0.4v-2c0-0.2-0.2-0.4-0.4-0.4c-0.2,0-0.4,0.2-0.4,0.4V59z M8.2,63.3c0,0.2,0.2,0.4,0.4,0.4
		c0.2,0,0.4-0.2,0.4-0.4v-2c0-0.2-0.2-0.4-0.4-0.4c-0.2,0-0.4,0.2-0.4,0.4V63.3z M8.2,67.6c0,0.2,0.2,0.4,0.4,0.4
		c0.2,0,0.4-0.2,0.4-0.4v-2c0-0.2-0.2-0.4-0.4-0.4c-0.2,0-0.4,0.2-0.4,0.4V67.6z M9.9,70.3c0-0.2-0.2-0.4-0.4-0.4H9.3
		c-0.1,0-0.1-0.1-0.1-0.1v-0.2c0-0.2-0.2-0.4-0.4-0.4c-0.2,0-0.4,0.2-0.4,0.4v0.2c0,0.5,0.5,1,1,1h0.2C9.7,70.8,9.9,70.5,9.9,70.3z
		 M13.7,70.3c0-0.2-0.2-0.4-0.4-0.4h-2c-0.2,0-0.4,0.2-0.4,0.4c0,0.2,0.2,0.4,0.4,0.4h2C13.5,70.8,13.7,70.5,13.7,70.3z M13.7,37.1
		c0-0.2-0.2-0.4-0.4-0.4h-2c-0.2,0-0.4,0.2-0.4,0.4s0.2,0.4,0.4,0.4h2C13.5,37.5,13.7,37.3,13.7,37.1z M18,70.3
		c0-0.2-0.2-0.4-0.4-0.4h-2c-0.2,0-0.4,0.2-0.4,0.4c0,0.2,0.2,0.4,0.4,0.4h2C17.8,70.8,18,70.5,18,70.3z M18,37.1
		c0-0.2-0.2-0.4-0.4-0.4h-2c-0.2,0-0.4,0.2-0.4,0.4s0.2,0.4,0.4,0.4h2C17.8,37.5,18,37.3,18,37.1z M22.3,70.3c0-0.2-0.2-0.4-0.4-0.4
		h-2c-0.2,0-0.4,0.2-0.4,0.4c0,0.2,0.2,0.4,0.4,0.4h2C22.1,70.8,22.3,70.5,22.3,70.3z M22.3,37.1c0-0.2-0.2-0.4-0.4-0.4h-2
		c-0.2,0-0.4,0.2-0.4,0.4s0.2,0.4,0.4,0.4h2C22.1,37.5,22.3,37.3,22.3,37.1z M26.6,70.3c0-0.2-0.2-0.4-0.4-0.4h-2
		c-0.2,0-0.4,0.2-0.4,0.4c0,0.2,0.2,0.4,0.4,0.4h2C26.4,70.8,26.6,70.5,26.6,70.3z M26.6,37.1c0-0.2-0.2-0.4-0.4-0.4h-2
		c-0.2,0-0.4,0.2-0.4,0.4s0.2,0.4,0.4,0.4h2C26.4,37.5,26.6,37.3,26.6,37.1z M30.9,70.3c0-0.2-0.2-0.4-0.4-0.4h-2
		c-0.2,0-0.4,0.2-0.4,0.4c0,0.2,0.2,0.4,0.4,0.4h2C30.7,70.8,30.9,70.5,30.9,70.3z M30.9,37.1c0-0.2-0.2-0.4-0.4-0.4h-2
		c-0.2,0-0.4,0.2-0.4,0.4s0.2,0.4,0.4,0.4h2C30.7,37.5,30.9,37.3,30.9,37.1z M35.2,70.3c0-0.2-0.2-0.4-0.4-0.4h-2
		c-0.2,0-0.4,0.2-0.4,0.4c0,0.2,0.2,0.4,0.4,0.4h2C35,70.8,35.2,70.5,35.2,70.3z M35.2,37.1c0-0.2-0.2-0.4-0.4-0.4h-2
		c-0.2,0-0.4,0.2-0.4,0.4s0.2,0.4,0.4,0.4h2C35,37.5,35.2,37.3,35.2,37.1z M39.5,70.3c0-0.2-0.2-0.4-0.4-0.4h-2
		c-0.2,0-0.4,0.2-0.4,0.4c0,0.2,0.2,0.4,0.4,0.4h2C39.3,70.8,39.5,70.5,39.5,70.3z M39.5,37.1c0-0.2-0.2-0.4-0.4-0.4h-2
		c-0.2,0-0.4,0.2-0.4,0.4s0.2,0.4,0.4,0.4h2C39.3,37.5,39.5,37.3,39.5,37.1z M43.8,70.3c0-0.2-0.2-0.4-0.4-0.4h-2
		c-0.2,0-0.4,0.2-0.4,0.4c0,0.2,0.2,0.4,0.4,0.4h2C43.6,70.8,43.8,70.5,43.8,70.3z M43.8,37.1c0-0.2-0.2-0.4-0.4-0.4h-2
		c-0.2,0-0.4,0.2-0.4,0.4s0.2,0.4,0.4,0.4h2C43.6,37.5,43.8,37.3,43.8,37.1z M48.1,70.3c0-0.2-0.2-0.4-0.4-0.4h-2
		c-0.2,0-0.4,0.2-0.4,0.4c0,0.2,0.2,0.4,0.4,0.4h2C47.9,70.8,48.1,70.5,48.1,70.3z M58.4,63.3c0,0.2,0.2,0.4,0.4,0.4
		s0.4-0.2,0.4-0.4v-2c0-0.2-0.2-0.4-0.4-0.4s-0.4,0.2-0.4,0.4V63.3z M58.4,67.6c0,0.2,0.2,0.4,0.4,0.4s0.4-0.2,0.4-0.4v-2
		c0-0.2-0.2-0.4-0.4-0.4s-0.4,0.2-0.4,0.4V67.6z M57.6,70.3c0,0.2,0.2,0.4,0.4,0.4h0.2c0.5,0,1-0.5,1-1v-0.2c0-0.2-0.2-0.4-0.4-0.4
		c-0.2,0-0.4,0.2-0.4,0.4v0.2c0,0.1-0.1,0.1-0.1,0.1h-0.2C57.8,69.9,57.6,70.1,57.6,70.3z M53.8,70.3c0,0.2,0.2,0.4,0.4,0.4h2
		c0.2,0,0.4-0.2,0.4-0.4c0-0.2-0.2-0.4-0.4-0.4h-2C54,69.9,53.8,70.1,53.8,70.3z M52,69.9h-2c-0.2,0-0.4,0.2-0.4,0.4
		c0,0.2,0.2,0.4,0.4,0.4h2c0.2,0,0.4-0.2,0.4-0.4C52.4,70,52.2,69.9,52,69.9z"/>
	<path class="st0" d="M23.5,21.6l1.2,1c-0.3,0.2-0.8,0.7-1.2,1.6c0,0,0,0,0,0.1l-1.7,1.4c0-0.4,0-0.7,0.1-1.1l-0.6-0.3
		C21.2,24.2,21,24,21,23.9c-0.1-0.1-0.1-0.3,0-0.5l0-0.1c0.1-0.1,0.2-0.2,0.3-0.3c0.1-0.1,0.3-0.1,0.5,0l0.5,0.2
		C22.8,22.4,23.2,21.9,23.5,21.6z M41.9,9.3L26.9,2.9c-1.3-0.6-2.8,0-3.4,1.4L11.7,31.9h1.6L23.5,8.2L25,4.9
		c0.2-0.5,0.9-0.8,1.4-0.6l3.4,1.4l11.2,4.8l1.3-1C42.1,9.4,42,9.4,41.9,9.3z M37.7,9.9L37.7,9.9l-8.3-3.6c-1.1,1.8-3.2,2.7-5.3,2.1
		l-10,23.3l5.2-4.1c-0.8-1.6-1-3.4-0.3-5.1c1.4-3.2,5.7-4.6,9.6-2.9c0.2,0.1,0.3,0.1,0.5,0.2l8.8-7C37.5,12,37.4,10.9,37.7,9.9z"/>
</g>
</svg>
