<?xml version="1.0" encoding="utf-8"?>
<!-- Generator: Adobe Illustrator 22.0.1, SVG Export Plug-In . SVG Version: 6.00 Build 0)  -->
<svg version="1.1" id="Layer_1" xmlns="http://www.w3.org/2000/svg" xmlns:xlink="http://www.w3.org/1999/xlink" x="0px" y="0px"
	 viewBox="0 0 16 15" style="enable-background:new 0 0 16 15;" xml:space="preserve">
<style type="text/css">
	.st0{fill:#7878A0;}
</style>
<title>MAXICONS1_gamepad</title>
<desc>Created with Sketch.</desc>
<g id="_x30_1-Home" transform="translate(-1130.000000, -221.000000)">
	<g id="MAXICONS1_gamepad" transform="translate(1130.000000, 221.000000)">
		<path id="Shape" class="st0" d="M13,0H3C1.3,0,0,1.3,0,3v8c0,1.9,1.6,3.5,3.5,3.5S7,12.9,7,11v-1h2v1c0,1.9,1.6,3.5,3.5,3.5
			S16,12.9,16,11V3C16,1.3,14.7,0,13,0z M14,11c0,0.8-0.7,1.5-1.5,1.5S11,11.8,11,11V9c0-0.6-0.4-1-1-1H6C5.4,8,5,8.4,5,9v2
			c0,0.8-0.7,1.5-1.5,1.5S2,11.8,2,11V3c0-0.6,0.4-1,1-1h10c0.6,0,1,0.4,1,1V11z"/>
		<path id="Shape_1_" class="st0" d="M12,3h-2C9.4,3,9,3.4,9,4v2c0,0.6,0.4,1,1,1h2c0.6,0,1-0.4,1-1V4C13,3.4,12.6,3,12,3z"/>
		<circle id="Oval" class="st0" cx="5" cy="5" r="2"/>
	</g>
</g>
</svg>
