<?xml version="1.0" encoding="utf-8"?>
<!-- Generator: Adobe Illustrator 22.0.1, SVG Export Plug-In . SVG Version: 6.00 Build 0)  -->
<svg version="1.1" id="Layer_1" xmlns="http://www.w3.org/2000/svg" xmlns:xlink="http://www.w3.org/1999/xlink" x="0px" y="0px"
	 viewBox="0 0 14 14" style="enable-background:new 0 0 14 14;" xml:space="preserve">
<style type="text/css">
	.st0{fill:#7878A0;}
</style>
<title>MAXICONS3_Wi-fi perfect</title>
<desc>Created with Sketch.</desc>
<g id="_x30_1-Home" transform="translate(-828.000000, -220.000000)">
	<g id="MAXICONS3_Wi-fi-perfect" transform="translate(828.000000, 220.000000)">
		<path id="Shape" class="st0" d="M1,9c-0.5,0-1,0.5-1,1v3c0,0.5,0.5,1,1,1s1-0.5,1-1v-3C2,9.5,1.5,9,1,9z"/>
		<path id="Shape_1_" class="st0" d="M5,6C4.5,6,4,6.5,4,7v6c0,0.5,0.5,1,1,1s1-0.5,1-1V7C6,6.5,5.5,6,5,6z"/>
		<path id="Shape_2_" class="st0" d="M9,3C8.5,3,8,3.5,8,4v9c0,0.5,0.5,1,1,1s1-0.5,1-1V4C10,3.5,9.5,3,9,3z"/>
		<path id="Shape_3_" class="st0" d="M13,0c-0.5,0-1,0.5-1,1v12c0,0.5,0.5,1,1,1s1-0.5,1-1V1C14,0.5,13.5,0,13,0z"/>
	</g>
</g>
</svg>
