<?xml version="1.0" encoding="utf-8"?>
<!-- Generator: Adobe Illustrator 22.0.1, SVG Export Plug-In . SVG Version: 6.00 Build 0)  -->
<svg version="1.1" id="Layer_1" xmlns="http://www.w3.org/2000/svg" xmlns:xlink="http://www.w3.org/1999/xlink" x="0px" y="0px"
	 viewBox="0 0 15 16" style="enable-background:new 0 0 15 16;" xml:space="preserve">
<style type="text/css">
	.st0{fill:#7878A0;}
</style>
<title>MAXICONS3_4G</title>
<desc>Created with Sketch.</desc>
<g id="_x30_1-Home" transform="translate(-660.000000, -220.000000)">
	<g id="MAXICONS3_4G" transform="translate(660.000000, 220.000000)">
		<path id="Shape" class="st0" d="M9,2h2c0.6,0,1-0.4,1-1s-0.4-1-1-1H9C7.3,0,6,1.3,6,3v2c0,1.7,1.3,3,3,3s3-1.3,3-3V4
			c0-0.6-0.4-1-1-1h-1C9.4,3,9,3.4,9,4s0.4,1,1,1c0,0.6-0.4,1-1,1S8,5.6,8,5V3C8,2.4,8.4,2,9,2z"/>
		<path id="Shape_1_" class="st0" d="M5,2c0-0.6-0.4-1-1-1S3,1.5,3,2v1H2V1c0-0.6-0.4-1-1-1S0,0.5,0,1v3c0,0.6,0.4,1,1,1h2v2
			c0,0.6,0.4,1,1,1s1-0.4,1-1V2z"/>
		<path id="Shape_2_" class="st0" d="M2,13c-0.5,0-1,0.5-1,1v1c0,0.5,0.5,1,1,1s1-0.5,1-1v-1C3,13.5,2.5,13,2,13z"/>
		<path id="Shape_3_" class="st0" d="M6,12c-0.5,0-1,0.5-1,1v2c0,0.5,0.5,1,1,1s1-0.5,1-1v-2C7,12.5,6.5,12,6,12z"/>
		<path id="Shape_4_" class="st0" d="M10,10c-0.5,0-1,0.5-1,1v4c0,0.5,0.5,1,1,1s1-0.5,1-1v-4C11,10.5,10.5,10,10,10z"/>
		<path id="Shape_5_" class="st0" d="M14,6c-0.5,0-1,0.5-1,1v8c0,0.5,0.5,1,1,1s1-0.5,1-1V7C15,6.5,14.5,6,14,6z"/>
	</g>
</g>
</svg>
