<?xml version="1.0" encoding="utf-8"?>
<!-- Generator: Adobe Illustrator 22.0.1, SVG Export Plug-In . SVG Version: 6.00 Build 0)  -->
<svg version="1.1" id="Layer_1" xmlns="http://www.w3.org/2000/svg" xmlns:xlink="http://www.w3.org/1999/xlink" x="0px" y="0px"
	 viewBox="0 0 16 16" style="enable-background:new 0 0 16 16;" xml:space="preserve">
<style type="text/css">
	.st0{fill:#7878A0;}
</style>
<title>MAXICONS3_add to basket2</title>
<desc>Created with Sketch.</desc>
<g id="_x30_1-Home" transform="translate(-985.000000, -221.000000)">
	<g id="MAXICONS3_add-to-basket2" transform="translate(985.000000, 221.000000)">
		<circle id="Oval" class="st0" cx="3" cy="14" r="2"/>
		<circle id="Oval_1_" class="st0" cx="12" cy="14" r="2"/>
		<path id="Shape" class="st0" d="M15.3,2.1c-0.5-0.2-1.1,0.1-1.3,0.6L12.3,8H4.7L3.2,4H4c0.5,0,1-0.5,1-1S4.5,2,4,2H2.4L1.9,0.6
			C1.7,0.1,1.2-0.1,0.6,0.1C0.1,0.3-0.1,0.8,0.1,1.4l3,8C3.2,9.7,3.6,10,4,10h9c0.4,0,0.8-0.3,0.9-0.7l2-6
			C16.1,2.8,15.8,2.2,15.3,2.1z"/>
		<path id="Shape_1_" class="st0" d="M8.3,5.7c0.4,0.4,1,0.4,1.4,0l2-2c0.4-0.4,0.4-1,0-1.4c-0.4-0.4-1-0.4-1.4,0L10,2.6V1
			c0-0.5-0.5-1-1-1S8,0.5,8,1v1.6L7.7,2.3c-0.4-0.4-1-0.4-1.4,0c-0.4,0.4-0.4,1,0,1.4L8.3,5.7z"/>
	</g>
</g>
</svg>
