<?xml version="1.0" encoding="UTF-8"?>
<svg xmlns="http://www.w3.org/2000/svg" width="512" height="512" viewBox="0 0 512 512"><g><path d="M496,88H392V36A28.031,28.031,0,0,0,364,8H148a28.031,28.031,0,0,0-28,28V170.36L13.31,208.47A7.981,7.981,0,0,0,8,216v24a8,8,0,0,0,8,8v16a8,8,0,0,0,8,8h8v72H24a8,8,0,0,0-8,8v16a8,8,0,0,0-8,8v24a8,8,0,0,0,8,8H120v68a28.031,28.031,0,0,0,28,28H364a28.031,28.031,0,0,0,28-28V232H496a8,8,0,0,0,8-8V96A8,8,0,0,0,496,88ZM284.9,24l-2.67,8H229.77l-2.67-8ZM24,232V221.64L128,184.5l104,37.14V232Zm8,24v-8H224v8Zm176,16v72H192V272Zm-32,0v72H152V272Zm-40,0v72H120V272Zm-32,0v72H80V272Zm-40,0v72H48V272ZM32,360H224v8H32Zm-8,32v-8H232v8Zm352,84a12.01,12.01,0,0,1-12,12H148a12.01,12.01,0,0,1-12-12V408H240a8,8,0,0,0,8-8V376a8,8,0,0,0-8-8V352a8,8,0,0,0-8-8h-8V272h8a8,8,0,0,0,8-8V248a8,8,0,0,0,8-8V216a7.981,7.981,0,0,0-5.31-7.53L136,170.36V36a12.01,12.01,0,0,1,12-12h62.23l6.18,18.53A8,8,0,0,0,224,48h64a8,8,0,0,0,7.59-5.47L301.77,24H364a12.01,12.01,0,0,1,12,12V88H304a8,8,0,0,0-8,8V224a8,8,0,0,0,8,8h72ZM334.99,104A32.12,32.12,0,0,1,312,126.99V104ZM312,193.01A32.12,32.12,0,0,1,334.99,216H312ZM488,216H465.01A32.12,32.12,0,0,1,488,193.01Zm0-39.32A48.094,48.094,0,0,0,448.68,216H351.32A48.094,48.094,0,0,0,312,176.68V143.32A48.094,48.094,0,0,0,351.32,104h97.36A48.094,48.094,0,0,0,488,143.32Zm0-49.69A32.12,32.12,0,0,1,465.01,104H488Z"/><path d="M400,128a32,32,0,1,0,32,32A32.036,32.036,0,0,0,400,128Zm0,48a16,16,0,1,1,16-16A16.019,16.019,0,0,1,400,176Z"/><path d="M280,464H232a8,8,0,0,0,0,16h48a8,8,0,0,0,0-16Z"/></g></svg>
